<svg width="20" height="20" viewBox="0 0 20 20" fill="none" xmlns="http://www.w3.org/2000/svg">
<path d="M11.25 9.99994C11.25 10.6899 10.69 11.2499 10 11.2499C9.31 11.2499 8.75 10.6899 8.75 9.99994C8.75 9.30994 9.31 8.74994 10 8.74994C10.69 8.74994 11.25 9.30994 11.25 9.99994ZM16.5692 13.8258C16.8733 16.1733 16.36 17.9483 15.1067 18.7374C14.6558 19.0216 14.1325 19.1658 13.5617 19.1658C13.2642 19.1658 12.9542 19.1266 12.635 19.0474C11.79 18.8399 10.8933 18.3641 9.9975 17.6724C8.7225 18.6583 7.495 19.1674 6.42918 19.1674C5.86668 19.1674 5.34832 19.0258 4.8925 18.7374C3.59417 17.9191 3.12083 16.0941 3.42 13.8024C1.2475 12.8749 0 11.5099 0 9.99994C0 8.4308 1.30833 7.07662 3.43083 6.1733C3.12583 3.82579 3.64 2.05079 4.8925 1.26162C5.5775 0.828287 6.4325 0.722451 7.36332 0.951619C8.21082 1.15995 9.11082 1.63829 10.01 2.33412C11.9525 0.835787 13.79 0.431619 15.1067 1.26162C16.4058 2.07995 16.8783 3.90495 16.5792 6.1983C18.7525 7.12494 19.9992 8.48994 19.9992 9.99994C19.9992 11.5691 18.6917 12.9233 16.5692 13.8258ZM11.8525 13.2399C12.1783 12.7774 12.4917 12.2916 12.7833 11.7899C13.1333 11.1874 13.4342 10.5891 13.6983 10.0008C13.4267 9.39912 13.1242 8.79744 12.7833 8.20994C12.4792 7.6858 12.1642 7.2108 11.845 6.7583C11.2417 6.69912 10.6225 6.66662 9.99918 6.66662C9.35668 6.66662 8.73918 6.7008 8.14582 6.75994C7.82082 7.22244 7.50668 7.7083 7.215 8.20994C6.86582 8.81162 6.56418 9.40994 6.3 9.99744C6.57332 10.6024 6.875 11.2049 7.215 11.7899C7.51918 12.3141 7.835 12.7891 8.15332 13.2416C8.75668 13.2999 9.37582 13.3333 9.99832 13.3333C10.6408 13.3333 11.2592 13.2991 11.8525 13.2399ZM11.2658 3.46745C12.3208 4.52744 13.3392 5.84744 14.225 7.3733C14.3208 7.53744 14.405 7.70662 14.4958 7.87244C15.2583 5.29912 15.1217 3.24079 14.2183 2.67162C13.5883 2.27412 12.4917 2.58329 11.2658 3.46745ZM5.04082 5.61912C6.48668 5.22412 8.16918 4.99994 10 4.99994C10.15 4.99994 10.2983 5.0083 10.4483 5.01162C9.15 3.61245 7.885 2.79662 6.96668 2.57079C6.47832 2.45079 6.08 2.48412 5.7825 2.67245C5.16668 3.05995 4.90582 4.1583 5.04168 5.61994L5.04082 5.61912ZM3.75417 12.1333C3.9625 11.3491 4.24832 10.5316 4.60832 9.69494C4.60918 9.69162 4.61082 9.68912 4.6125 9.6858C4.94 8.92494 5.32332 8.1508 5.775 7.3733C5.82418 7.2883 5.88168 7.21244 5.9325 7.1283C3.3425 7.75494 1.66667 8.9208 1.66667 9.99994C1.66667 10.7308 2.45167 11.5166 3.75417 12.1333ZM8.7325 16.5308C7.67832 15.4708 6.66 14.1516 5.775 12.6266C5.67918 12.4624 5.595 12.2933 5.50418 12.1266C4.74168 14.6999 4.87832 16.7583 5.78168 17.3283C6.41332 17.7266 7.50668 17.4166 8.7325 16.5308ZM14.9583 14.3808C13.5125 14.7758 11.83 14.9999 9.99918 14.9999C9.84918 14.9999 9.70082 14.9916 9.55168 14.9883C10.85 16.3874 12.115 17.2041 13.0333 17.4299C13.5225 17.5491 13.92 17.5149 14.2175 17.3283C14.8325 16.9408 15.0942 15.8424 14.9575 14.3808H14.9583ZM18.3325 9.99994C18.3325 9.26994 17.5467 8.48412 16.245 7.86662C15.8467 9.36662 15.1742 10.9899 14.225 12.6266C14.1758 12.7108 14.1183 12.7874 14.0683 12.8708C16.6583 12.2441 18.3333 11.0783 18.3333 9.99912L18.3325 9.99994Z" fill="#01383D"/>
</svg>
