<svg width="18" height="19" viewBox="0 0 18 19" fill="none" xmlns="http://www.w3.org/2000/svg">
<path d="M3 15.125V3.875C3 3.37772 3.19754 2.90081 3.54917 2.54917C3.90081 2.19754 4.37772 2 4.875 2H14.25C14.4489 2 14.6397 2.07902 14.7803 2.21967C14.921 2.36032 15 2.55109 15 2.75V16.25C15 16.4489 14.921 16.6397 14.7803 16.7803C14.6397 16.921 14.4489 17 14.25 17H4.875C4.37772 17 3.90081 16.8025 3.54917 16.4508C3.19754 16.0992 3 15.6223 3 15.125ZM3 15.125C3 14.6277 3.19754 14.1508 3.54917 13.7992C3.90081 13.4475 4.37772 13.25 4.875 13.25H15" stroke="white" stroke-width="1.5" stroke-linecap="round" stroke-linejoin="round"/>
</svg>
