<svg width="20" height="20" viewBox="0 0 20 20" fill="none" xmlns="http://www.w3.org/2000/svg">
<g clip-path="url(#clip0_0_377)">
<path d="M9.58823 5.42565C9.58823 4.27704 10.5189 3.34637 11.6675 3.34637C12.8161 3.34637 13.7468 4.27704 13.7468 5.42565C13.7468 6.57423 12.8161 7.50491 11.6675 7.50491C10.5189 7.50491 9.58823 6.57423 9.58823 5.42565ZM8.26082 11.5428C8.65342 11.7816 9.16574 11.656 9.40359 11.2634C9.86854 10.4966 10.7568 10 11.6675 10C12.5783 10 13.4665 10.4957 13.9314 11.2634C14.0878 11.5212 14.3631 11.6635 14.6434 11.6635C14.7906 11.6635 14.9386 11.6244 15.0742 11.5428C15.4668 11.305 15.5924 10.7935 15.3545 10.4001C14.5818 9.12674 13.1696 8.33661 11.6675 8.33661C10.1655 8.33661 8.75322 9.12756 7.98055 10.4001C7.7427 10.7935 7.86827 11.3042 8.26082 11.5428ZM18.3212 4.17809V15.822C18.3212 18.115 16.4557 19.9805 14.1627 19.9805H5.01385C3.1791 19.9805 1.68701 18.4885 1.68701 16.6537V4.17809C1.68701 1.88506 3.55254 0.0195312 5.84554 0.0195312H14.1627C16.4557 0.0195312 18.3212 1.88506 18.3212 4.17809ZM14.1627 1.68295H6.67728V13.3269H16.6578V4.17809C16.6578 2.80243 15.5383 1.68295 14.1627 1.68295ZM3.35043 4.17809V13.7893C3.84197 13.5032 4.40504 13.3269 5.01385 13.3269V1.83598C4.04823 2.18031 3.35043 3.09519 3.35043 4.17809ZM16.6578 15.822V14.9903H5.01385C4.09646 14.9903 3.35043 15.7363 3.35043 16.6537C3.35043 17.5711 4.09646 18.3171 5.01385 18.3171H14.1627C15.5383 18.3171 16.6578 17.1977 16.6578 15.822Z" fill="#01383D"/>
</g>
<defs>
<clipPath id="clip0_0_377">
<rect width="20" height="19.961" fill="white" transform="translate(0 0.0195312)"/>
</clipPath>
</defs>
</svg>
