<svg width="20" height="20" viewBox="0 0 20 20" fill="none" xmlns="http://www.w3.org/2000/svg">
<mask id="mask0_0_411" style="mask-type:luminance" maskUnits="userSpaceOnUse" x="0" y="0" width="20" height="20">
<path d="M19.9845 0.0195312H0.0234375V19.9805H19.9845V0.0195312Z" fill="white"/>
</mask>
<g mask="url(#mask0_0_411)">
<path d="M10.8355 12.4951V16.6537C10.8355 17.1128 10.4629 17.4854 10.0038 17.4854C9.54471 17.4854 9.17212 17.1128 9.17212 16.6537V13.3269H8.54834C7.51453 13.3269 6.67699 12.4893 6.67699 11.4555C6.67699 10.791 7.02549 10.2113 7.54779 9.87944C7.52452 9.78462 7.50869 9.68649 7.50869 9.58419C7.50869 8.89554 8.0676 8.33663 8.75625 8.33663C8.92093 8.33663 9.07648 8.36989 9.22034 8.42809C9.36424 7.89749 9.84413 7.5049 10.4197 7.5049C10.8638 7.5049 11.2506 7.7378 11.4718 8.08712C11.6531 7.98396 11.8602 7.92076 12.0831 7.92076C12.7718 7.92076 13.3307 8.47967 13.3307 9.16833C14.2497 9.16833 14.9941 9.91269 14.9941 10.8318C14.9941 11.7508 14.2497 12.4951 13.3307 12.4951H10.8355ZM9.49068 2.91886C9.52892 2.91886 9.56884 2.91637 9.60795 2.91054C10.0629 2.84651 10.3798 2.42566 10.3157 1.97155L10.1452 0.758914C10.0812 0.303969 9.65617 -0.0154069 9.20537 0.0511298C8.75044 0.115171 8.43356 0.536018 8.49761 0.990961L8.6681 2.20276C8.72631 2.61861 9.08311 2.91886 9.49068 2.91886ZM13.6841 3.29479C13.7723 3.32474 13.8621 3.33888 13.9503 3.33888C14.2971 3.33888 14.6207 3.12013 14.7379 2.77331L15.1305 1.61308C15.2769 1.1781 15.0432 0.705686 14.6082 0.558474C14.1715 0.410427 13.7008 0.645803 13.5536 1.08079L13.1618 2.24019C13.0146 2.67517 13.2492 3.14758 13.6841 3.29479ZM17.693 5.661C17.9067 5.661 18.1196 5.57951 18.2826 5.41647L19.146 4.54903C19.4703 4.22298 19.4695 3.69734 19.1435 3.37298C18.8175 3.04861 18.2918 3.04944 17.9674 3.37547L17.1033 4.24295C16.7798 4.56899 16.7806 5.09546 17.1058 5.41983C17.268 5.58115 17.4801 5.661 17.693 5.661ZM4.62767 4.19055C4.789 4.42427 5.04849 4.54903 5.31216 4.54903C5.47516 4.54903 5.6407 4.50076 5.78455 4.40096C6.16218 4.13983 6.25699 3.62166 5.995 3.24406L5.29886 2.23852C5.03769 1.8601 4.51953 1.76612 4.14194 2.02727C3.76435 2.28843 3.66953 2.80658 3.93068 3.18418L4.62767 4.19055ZM2.75881 6.24653L1.69007 5.65102C1.28918 5.42731 0.782672 5.57117 0.55811 5.97207C0.334381 6.37297 0.478266 6.88029 0.879151 7.10404L1.94956 7.69951C2.07764 7.77106 2.21654 7.80431 2.35294 7.80431C2.64487 7.80431 2.92848 7.65047 3.08068 7.37682C3.30441 6.97593 3.16053 6.47028 2.75881 6.24653ZM17.0958 7.2454C15.3226 4.87753 12.4033 3.75806 9.47403 4.32361C6.4591 4.90665 4.05294 7.32774 3.48739 10.3485C3.09815 12.427 3.81176 14.7325 5.4444 16.6745C5.70307 16.9822 5.8453 17.3648 5.8453 17.7507V19.148C5.8453 19.6071 6.21789 19.9797 6.67699 19.9797C7.13609 19.9797 7.50869 19.6071 7.50869 19.148V17.7507C7.50869 16.9731 7.2276 16.2104 6.71773 15.6033C5.40697 14.0438 4.82561 12.2398 5.12253 10.6537C5.56335 8.29835 7.43968 6.41039 9.79009 5.95628C12.0856 5.50965 14.377 6.38794 15.7842 8.26591C16.5402 9.20076 18.0606 12.4719 18.2926 13.3252H17.6514C17.2256 13.3252 16.8696 13.6463 16.8239 14.0696L16.6367 15.8411C16.5128 16.7768 15.7077 17.4838 14.7629 17.4838H14.5774C13.497 17.4838 12.914 18.3404 12.914 19.1472C12.914 19.6063 13.2866 19.9789 13.7457 19.9789C14.2048 19.9789 14.5774 19.6063 14.5774 19.1472H15.0024C15.0798 19.1472 15.1546 19.1364 15.2261 19.1164C16.7964 18.9093 18.0739 17.6617 18.2885 16.0374L18.3991 14.9886H18.4715C19.4537 14.9886 19.9835 14.2093 19.9835 13.4766C19.9835 12.4852 18.0016 8.36322 17.095 7.24458L17.0958 7.2454Z" fill="#01383D"/>
</g>
</svg>
