<svg width="20" height="20" viewBox="0 0 20 20" fill="none" xmlns="http://www.w3.org/2000/svg">
<path d="M15.8181 3.34637H14.9032C14.7102 2.40771 14.1994 1.5643 13.4571 0.958295C12.7147 0.35229 11.7861 0.020741 10.8278 0.0195312H9.16443C8.20611 0.020741 7.27753 0.35229 6.53519 0.958295C5.79281 1.5643 5.28209 2.40771 5.08903 3.34637H4.17418C3.07166 3.34769 2.01468 3.78624 1.23509 4.56585C0.455502 5.34542 0.0169457 6.40242 0.015625 7.50491V15.822C0.0169457 16.9245 0.455502 17.9815 1.23509 18.7611C2.01468 19.5407 3.07166 19.9792 4.17418 19.9805H15.8181C16.9206 19.9792 17.9776 19.5407 18.7572 18.7611C19.5367 17.9815 19.9753 16.9245 19.9766 15.822V7.50491C19.9753 6.40242 19.5367 5.34542 18.7572 4.56585C17.9776 3.78624 16.9206 3.34769 15.8181 3.34637ZM9.16443 1.68295H10.8278C11.3421 1.68508 11.8431 1.84603 12.2623 2.14379C12.6815 2.44154 12.9985 2.86156 13.1699 3.34637H6.82232C6.99375 2.86156 7.31075 2.44154 7.72997 2.14379C8.14922 1.84603 8.6502 1.68508 9.16443 1.68295ZM4.17418 5.00978H15.8181C16.4798 5.00978 17.1145 5.27267 17.5824 5.74058C18.0504 6.20854 18.3132 6.84316 18.3132 7.50491V10H1.67904V7.50491C1.67904 6.84316 1.94192 6.20854 2.40985 5.74058C2.87777 5.27267 3.51242 5.00978 4.17418 5.00978ZM15.8181 18.3171H4.17418C3.51242 18.3171 2.87777 18.0543 2.40985 17.5863C1.94192 17.1184 1.67904 16.4837 1.67904 15.822V11.6635H9.16443V12.4952C9.16443 12.7157 9.25203 12.9273 9.40802 13.0833C9.564 13.2393 9.77554 13.3269 9.99613 13.3269C10.2167 13.3269 10.4282 13.2393 10.5842 13.0833C10.7402 12.9273 10.8278 12.7157 10.8278 12.4952V11.6635H18.3132V15.822C18.3132 16.4837 18.0504 17.1184 17.5824 17.5863C17.1145 18.0543 16.4798 18.3171 15.8181 18.3171Z" fill="#01383D"/>
</svg>
