<svg width="20" height="20" viewBox="0 0 20 20" fill="none" xmlns="http://www.w3.org/2000/svg">
<path d="M9.16664 5.0001C9.16664 5.22111 9.07887 5.43306 8.92258 5.58935C8.76629 5.74564 8.55433 5.83342 8.33332 5.83342C8.1123 5.83342 7.90035 5.92123 7.74406 6.07752C7.58777 6.23377 7.5 6.44576 7.5 6.66674C7.5 6.88775 7.41219 7.09974 7.2559 7.25599C7.09961 7.41228 6.88766 7.5001 6.66664 7.5001C6.44562 7.5001 6.23367 7.41228 6.07738 7.25599C5.92113 7.09974 5.83332 6.88775 5.83332 6.66674C5.83332 6.00373 6.09672 5.36783 6.56555 4.899C7.03437 4.43014 7.67027 4.16674 8.33332 4.16674C8.55433 4.16674 8.76629 4.25455 8.92258 4.41084C9.07887 4.56713 9.16664 4.77908 9.16664 5.0001ZM11.6666 5.83342C11.4456 5.83342 11.2337 5.92123 11.0774 6.07752C10.9211 6.23377 10.8333 6.44576 10.8333 6.66674C10.8333 6.88775 10.9211 7.09974 11.0774 7.25599C11.2337 7.41228 11.4456 7.5001 11.6666 7.5001C11.8877 7.5001 12.0996 7.58787 12.2559 7.74416C12.4122 7.90045 12.5 8.1124 12.5 8.33342C12.5 8.55443 12.5878 8.76639 12.7441 8.92267C12.9003 9.07896 13.1123 9.16674 13.3333 9.16674C13.5543 9.16674 13.7663 9.07896 13.9226 8.92267C14.0789 8.76639 14.1666 8.55443 14.1666 8.33342C14.1666 7.67037 13.9032 7.03451 13.4344 6.56564C12.9656 6.09681 12.3297 5.83342 11.6666 5.83342ZM18.2691 11.2384L17.1858 16.6551C16.9941 17.5977 16.483 18.4453 15.7387 19.0547C14.9945 19.6642 14.0627 19.9981 13.1008 20.0001H6.89914C5.93691 19.9975 5.00512 19.6628 4.26113 19.0526C3.51713 18.4424 3.00661 17.594 2.81582 16.6509L1.73248 11.2342C1.22026 10.9456 0.793335 10.5268 0.494882 10.0202C0.196428 9.51361 0.0370292 8.93721 0.0328012 8.34924C0.0285732 7.76131 0.179666 7.18264 0.470804 6.67181C0.76194 6.16099 1.1828 5.73611 1.69082 5.4401C1.7763 4.72869 2.08834 4.06365 2.58085 3.54323C3.07335 3.02281 3.7202 2.67462 4.42582 2.55009C4.68266 1.9693 5.12422 1.48969 5.68184 1.18585C6.23949 0.882018 6.88191 0.771006 7.50914 0.870088C7.83988 0.54012 8.24469 0.293992 8.68984 0.152229C9.135 0.0104651 9.60762 -0.0228272 10.0682 0.0551275C10.5289 0.133082 10.9642 0.320024 11.3379 0.60037C11.7116 0.880713 12.0129 1.24634 12.2166 1.66676C12.9773 1.70266 13.6934 2.03642 14.21 2.59592C14.6682 2.48552 15.1446 2.47328 15.6079 2.56001C16.0712 2.64673 16.5109 2.83046 16.8982 3.09913C17.2854 3.3678 17.6115 3.71534 17.855 4.11892C18.0984 4.52252 18.2538 4.97306 18.3108 5.44092C18.8196 5.7367 19.2412 6.1617 19.5329 6.67287C19.8246 7.18404 19.976 7.76322 19.9718 8.35178C19.9675 8.94029 19.8078 9.51725 19.5088 10.0242C19.2098 10.5311 18.7821 10.95 18.2691 11.2384ZM7.07 18.3334L6.66664 13.3851C6.67141 13.1625 6.63191 12.9411 6.55047 12.7339C6.46906 12.5266 6.3473 12.3376 6.19226 12.1778C6.03723 12.0179 5.85203 11.8904 5.64734 11.8028C5.44269 11.715 5.22266 11.6688 5 11.6667H3.51665L4.4475 16.3234C4.57 16.9177 4.90254 17.448 5.38414 17.8171C5.86578 18.1863 6.46426 18.3696 7.07 18.3334ZM11.2133 18.3334L11.6666 13.3151C11.6642 12.8731 11.4863 12.4501 11.172 12.1393C10.8577 11.8284 10.4329 11.6552 9.99082 11.6576C9.54879 11.66 9.12582 11.8379 8.815 12.1522C8.50414 12.4665 8.3309 12.8914 8.33332 13.3334L8.73914 18.3334H11.2133ZM16.4833 11.6667H15C14.558 11.6667 14.134 11.8424 13.8215 12.1549C13.5089 12.4675 13.3333 12.8914 13.3333 13.3334L12.8858 18.3334C13.4985 18.379 14.1069 18.2003 14.5975 17.8304C15.0882 17.4606 15.4276 16.925 15.5525 16.3234L16.4833 11.6667ZM18.3333 8.33342C18.3312 7.99025 18.2232 7.65611 18.0241 7.37658C17.825 7.09709 17.5445 6.88584 17.2208 6.77174C17.0587 6.71412 16.9184 6.60771 16.8192 6.46717C16.72 6.32662 16.6667 6.15881 16.6666 5.98674C16.6895 5.69346 16.6347 5.39935 16.5079 5.13392C16.381 4.86849 16.1866 4.64111 15.9441 4.47459C15.7016 4.3081 15.4195 4.2083 15.1263 4.18529C14.833 4.16224 14.5388 4.21681 14.2733 4.34342C14.0804 4.43787 13.8585 4.4542 13.6539 4.38896C13.4492 4.32377 13.2777 4.18205 13.175 3.99342C13.0691 3.79553 12.9118 3.62982 12.7197 3.51368C12.5276 3.39755 12.3078 3.33528 12.0833 3.33342C11.9587 3.38534 11.8243 3.40985 11.6894 3.40529C11.5544 3.40072 11.422 3.36719 11.3012 3.30696C11.1804 3.24674 11.0739 3.16123 10.9889 3.05623C10.9041 2.95123 10.8427 2.8292 10.8091 2.69842C10.7625 2.4523 10.6429 2.22588 10.4659 2.04854C10.289 1.8712 10.0628 1.75112 9.8168 1.70387C9.57078 1.65663 9.31625 1.68439 9.08621 1.78357C8.85613 1.88275 8.66121 2.04877 8.52664 2.26009C8.15664 2.85842 7.60164 2.58342 7.08332 2.50009C6.79516 2.50003 6.51582 2.59953 6.29258 2.78176C6.06937 2.96399 5.91594 3.21775 5.85832 3.50009C5.81801 3.70191 5.70445 3.88168 5.53953 4.00478C5.37457 4.12787 5.16992 4.18556 4.965 4.16674C4.52906 4.17592 4.11406 4.35553 3.80903 4.66713C3.504 4.97869 3.33322 5.3974 3.33332 5.83342C3.36116 6.02951 3.32146 6.22924 3.22075 6.39974C3.12003 6.57029 2.9643 6.70146 2.77915 6.77174C2.41515 6.90728 2.10992 7.16572 1.91619 7.5024C1.72246 7.83904 1.65241 8.23279 1.71812 8.6156C1.78383 8.99846 1.98119 9.34631 2.2761 9.59908C2.57101 9.85185 2.94495 9.99369 3.33332 10.0001H5C5.47488 10.0016 5.94391 10.1053 6.37527 10.304C6.8066 10.5027 7.19019 10.7918 7.5 11.1517C7.81191 10.7968 8.19586 10.5124 8.62625 10.3173C9.05664 10.1223 9.52363 10.0211 9.99617 10.0206C10.4687 10.02 10.9359 10.1201 11.3668 10.3141C11.7976 10.5081 12.1822 10.7917 12.495 11.1459C12.807 10.7878 13.1919 10.5003 13.6239 10.3028C14.0558 10.1051 14.525 10.002 15 10.0001H16.6666C17.1087 10.0001 17.5326 9.82451 17.8452 9.51193C18.1577 9.19935 18.3333 8.77545 18.3333 8.33342Z" fill="#01383D"/>
</svg>
