<svg width="20" height="20" viewBox="0 0 20 20" fill="none" xmlns="http://www.w3.org/2000/svg">
<path d="M17.7904 7.56486C17.4345 7.52493 17.0535 7.50497 16.6576 7.50497C14.2998 7.50497 12.361 9.793 11.9967 10.2513C11.5567 10.1032 10.9762 10.0001 10.4198 10.0001C9.21632 10.0267 8.16256 10.3212 7.33585 10.6655C7.59036 9.3863 7.55706 8.18033 7.52798 7.20556C7.51051 6.6716 7.49554 6.1601 7.53628 5.78084L9.44088 5.17453C9.78607 5.06474 10.0198 4.74454 10.0198 4.38189V4.14903L10.6768 3.9095C11.0719 3.7523 11.3896 3.43709 11.5518 3.04369C11.7106 2.65362 11.7073 2.22861 11.5393 1.84686C11.0477 0.724885 9.79188 -0.000366211 8.34053 -0.000366211C6.82268 -0.000366211 5.65995 0.986873 5.57679 1.06339C0.60149 4.88926 0.020127 10.0093 0.0151367 13.5274C0.0151367 14.6527 0.478399 15.7414 1.28682 16.5132C2.6425 17.8082 5.57679 19.9806 10.0031 19.9806C13.8989 19.9806 16.6277 18.9634 18.2321 18.1093C19.3125 17.5337 19.9837 16.4101 19.9837 15.1767V10.0433C19.9837 8.77082 19.0413 7.70458 17.7904 7.56486ZM18.321 15.1767C18.321 15.7938 17.9875 16.3552 17.4502 16.6413C16.0139 17.4056 13.5562 18.3172 10.004 18.3172C6.15815 18.3172 3.61145 16.4334 2.43541 15.3105C1.94636 14.844 1.67772 14.2111 1.67855 13.529C1.68355 10.0949 2.24578 5.72345 6.63055 2.34921C6.63886 2.34256 7.4348 1.66305 8.34053 1.66305C9.15979 1.66305 9.72283 2.01819 9.95656 2.40244L8.90279 2.78502C8.57425 2.90479 8.3555 3.21669 8.3555 3.56683V3.77476L6.57316 4.34197C6.32533 4.421 6.12903 4.61145 6.0417 4.85683C5.80965 5.51137 5.83461 6.32061 5.86373 7.25714C5.90696 8.6702 5.96104 10.4293 5.10435 12.0952C5.10353 12.0968 5.10435 12.0985 5.10271 12.1002C5.05363 12.1975 5.02369 12.3023 5.01539 12.4096C5.0079 12.5085 5.02201 12.6067 5.04864 12.7015C5.05114 12.7098 5.04864 12.7181 5.05114 12.7256C5.11601 12.9302 5.25741 13.1098 5.46365 13.2155C5.7739 13.3752 6.1332 13.3211 6.38186 13.1098C6.39932 13.0957 8.03948 11.7184 10.4182 11.6643C12.04 11.6643 13.0123 12.8994 13.0572 12.9635C13.2177 13.2005 13.4797 13.3278 13.7458 13.3278C13.9047 13.3278 14.0668 13.282 14.2091 13.1864C14.59 12.9302 14.6915 12.4137 14.4353 12.0328C14.4087 11.9929 14.0835 11.5304 13.488 11.058C14.1051 10.3544 15.4042 9.16922 16.656 9.16922C16.9903 9.16922 17.3097 9.18587 17.6041 9.21913C18.0116 9.26486 18.3194 9.62002 18.3194 10.045V15.1783L18.321 15.1767Z" fill="#01383D"/>
</svg>
