<svg width="17" height="16" viewBox="0 0 17 16" fill="none" xmlns="http://www.w3.org/2000/svg">
<path d="M13.8382 5.33337H3.17155C2.80336 5.33337 2.50488 5.63185 2.50488 6.00004V7.33337C2.50488 7.70156 2.80336 8.00004 3.17155 8.00004H13.8382C14.2064 8.00004 14.5049 7.70156 14.5049 7.33337V6.00004C14.5049 5.63185 14.2064 5.33337 13.8382 5.33337Z" stroke="black" stroke-width="1.33333" stroke-linecap="round" stroke-linejoin="round"/>
<path d="M8.50488 5.33337V14" stroke="black" stroke-width="1.33333" stroke-linecap="round" stroke-linejoin="round"/>
<path d="M13.1717 8V12.6667C13.1717 13.0203 13.0312 13.3594 12.7812 13.6095C12.5311 13.8595 12.192 14 11.8384 14H5.17171C4.81809 14 4.47895 13.8595 4.2289 13.6095C3.97885 13.3594 3.83838 13.0203 3.83838 12.6667V8" stroke="black" stroke-width="1.33333" stroke-linecap="round" stroke-linejoin="round"/>
<path d="M5.50505 5.33338C5.06302 5.33338 4.63909 5.15779 4.32653 4.84523C4.01397 4.53266 3.83838 4.10874 3.83838 3.66671C3.83838 3.22469 4.01397 2.80076 4.32653 2.4882C4.63909 2.17564 5.06302 2.00005 5.50505 2.00005C6.14817 1.98884 6.7784 2.30089 7.31354 2.89549C7.84868 3.49009 8.2639 4.33965 8.50505 5.33338C8.7462 4.33965 9.16141 3.49009 9.69655 2.89549C10.2317 2.30089 10.8619 1.98884 11.505 2.00005C11.9471 2.00005 12.371 2.17564 12.6836 2.4882C12.9961 2.80076 13.1717 3.22469 13.1717 3.66671C13.1717 4.10874 12.9961 4.53266 12.6836 4.84523C12.371 5.15779 11.9471 5.33338 11.505 5.33338" stroke="black" stroke-width="1.33333" stroke-linecap="round" stroke-linejoin="round"/>
</svg>
