<svg width="20" height="20" viewBox="0 0 20 20" fill="none" xmlns="http://www.w3.org/2000/svg">
<path d="M19.7361 16.9C19.4001 16.5598 19.1448 16.1489 19.1448 15.6707V10.9358C19.1448 9.33973 18.6349 7.78609 17.6893 6.50028L13.7046 1.08418C12.9161 -0.0427914 11.3575 -0.31975 10.2305 0.470374C10.1448 0.530257 10.0725 0.601781 9.99681 0.669984C9.92028 0.601781 9.84792 0.529423 9.76309 0.470374C8.63529 -0.317255 7.07751 -0.042791 6.29985 1.06837L2.30265 6.50028C1.357 7.78609 0.84716 9.34055 0.84716 10.9366V15.6715C0.84716 16.1497 0.592657 16.5606 0.255815 16.9008C-0.0660563 17.226 -0.0652247 17.7508 0.259142 18.0743C0.584341 18.3995 1.11081 18.3995 1.43601 18.0743C2.12882 17.3807 2.51058 16.4591 2.51058 15.4786V10.9374C2.51058 9.69653 2.9073 8.48804 3.64254 7.48835L7.65053 2.03898C7.91252 1.66387 8.43318 1.57239 8.80913 1.83438C8.99127 1.96163 9.11268 2.15209 9.15096 2.37166C9.19003 2.5904 9.14098 2.8108 9.02702 2.97465C9.02702 2.97465 5.48145 7.737 5.40827 7.85264C5.18535 8.16702 5.0057 8.51634 5.0057 9.05361V13.3286C5.0057 13.7885 5.37833 14.1603 5.83743 14.1603C6.29654 14.1603 6.66913 13.7885 6.66913 13.3286V9.17006C6.66913 8.71096 7.04172 8.33833 7.50082 8.33833C7.95993 8.33833 8.33256 8.71096 8.33256 9.17006V14.5761C8.33256 17.369 7.06667 18.4328 6.99349 18.491C6.63338 18.7688 6.56184 19.2844 6.83548 19.6496C6.99849 19.8683 7.24882 19.9823 7.50168 19.9823C7.67466 19.9823 7.85014 19.9282 7.99985 19.8159C8.08137 19.7552 9.99595 18.2764 9.99595 14.5761C9.99595 18.2764 11.9106 19.7552 11.9921 19.8159C12.1409 19.9274 12.3131 19.9806 12.4853 19.9806C12.734 19.9806 12.9793 19.8683 13.144 19.6554C13.4218 19.2953 13.3552 18.7754 13.0001 18.4927C12.946 18.4486 11.6602 17.3906 11.6602 14.5761V9.17006C11.6602 8.71096 12.0328 8.33833 12.4919 8.33833C12.951 8.33833 13.3236 8.71096 13.3236 9.17006V13.3286C13.3236 13.7885 13.6962 14.1603 14.1553 14.1603C14.6144 14.1603 14.9871 13.7885 14.9871 13.3286V9.05361C14.9871 8.51299 14.8041 8.16285 14.5829 7.85096C14.5105 7.73451 10.979 2.99295 10.979 2.99295C10.8518 2.8108 10.8027 2.5904 10.8418 2.37166C10.8801 2.15209 11.0015 1.96246 11.1836 1.83438C11.5613 1.57322 12.0802 1.66387 12.3538 2.05561L16.3502 7.48749C17.0863 8.48803 17.483 9.69653 17.483 10.9382V15.4786C17.483 16.4591 17.8648 17.3807 18.5576 18.0743C18.8828 18.3995 19.4092 18.3995 19.7344 18.0743C20.058 17.7508 20.0597 17.226 19.7378 16.9008L19.7361 16.9ZM11.7276 6.79303C11.4182 6.89201 11.1279 7.0517 10.8759 7.26628C10.317 7.74117 9.99595 8.434 9.99595 9.16757C9.99595 8.434 9.67576 7.74117 9.11603 7.26628C8.86316 7.05084 8.57291 6.89201 8.26351 6.79303L9.99513 4.45841L11.7276 6.79303Z" fill="#01383D"/>
</svg>
