<svg width="20" height="20" viewBox="0 0 20 20" fill="none" xmlns="http://www.w3.org/2000/svg">
<path d="M7.9325 2.0988C7.9325 0.950214 8.86318 0.0195312 10.0118 0.0195312C11.1603 0.0195312 12.091 0.950214 12.091 2.0988C12.091 3.24739 11.1603 4.17809 10.0118 4.17809C8.86318 4.17809 7.9325 3.24739 7.9325 2.0988ZM17.4971 2.51466C16.1215 2.51466 15.002 3.63414 15.002 5.00978V9.32136C14.7808 9.2432 14.5512 9.18495 14.31 9.17166C13.6505 9.13672 13.0067 9.35961 12.5027 9.81123L10.0001 12.1142C9.93109 12.0444 9.86704 11.9712 9.79468 11.9038L7.51246 9.80374C7.01593 9.35961 6.36969 9.13754 5.71347 9.17166C5.4723 9.18495 5.24275 9.2432 5.0215 9.32136V5.00978C5.0215 3.63414 3.90201 2.51466 2.52638 2.51466C1.15073 2.51466 0.03125 3.63414 0.03125 5.00978V13.4109C0.03125 15.1882 0.723233 16.8591 1.97994 18.1159L3.60177 19.7377C3.76396 19.8999 3.97686 19.9814 4.18981 19.9814C4.40271 19.9814 4.61561 19.8999 4.7778 19.7377C5.10302 19.4125 5.10302 18.886 4.7778 18.5616L3.15598 16.9398C2.21365 15.9975 1.69467 14.7441 1.69467 13.4109V5.00978C1.69467 4.5515 2.06727 4.17809 2.52638 4.17809C2.98548 4.17809 3.35809 4.5515 3.35809 5.00978C3.35809 5.00978 3.35393 11.7267 3.35809 11.7599C3.38304 12.3047 3.59512 12.8487 3.97854 13.3044L6.15429 15.5675C6.47199 15.8985 6.99846 15.9093 7.33031 15.5899C7.66053 15.2714 7.67133 14.745 7.35277 14.4139L5.21444 12.1933C4.95164 11.8797 4.95912 11.4131 5.23277 11.1079C5.37998 10.9432 5.5829 10.8459 5.80415 10.8334C6.02287 10.8184 6.23745 10.8958 6.39464 11.0363L8.6677 13.1289C9.52103 13.9141 10.0109 15.0302 10.0109 16.1896V19.1497C10.0109 19.6088 10.3827 19.9814 10.8426 19.9814C11.3026 19.9814 11.6743 19.6088 11.6743 19.1497V16.1896C11.6743 15.2315 11.4298 14.2975 10.989 13.465L13.6197 11.0438C13.7844 10.8958 13.9981 10.8184 14.2185 10.8334C14.4398 10.8459 14.6427 10.9432 14.7899 11.1079C14.923 11.2559 15.1567 11.8398 14.8456 12.1508L12.7389 14.3416C12.4204 14.6726 12.4312 15.1991 12.7614 15.5176C12.9227 15.6731 13.1298 15.7496 13.3378 15.7496C13.5565 15.7496 13.7736 15.664 13.9374 15.4943L16.0816 13.2612C16.4558 12.8154 16.6521 12.2673 16.6646 11.7167C16.6663 11.6975 16.6646 5.00897 16.6646 5.00897C16.6646 4.55068 17.0372 4.17723 17.4963 4.17723C17.9554 4.17723 18.328 4.55068 18.328 5.00897V13.4101C18.328 14.7433 17.809 15.9958 16.8667 16.939L15.2449 18.5608C14.9197 18.8852 14.9197 19.4117 15.2449 19.7368C15.407 19.899 15.62 19.9805 15.8329 19.9805C16.0458 19.9805 16.2587 19.899 16.4209 19.7368L18.0427 18.115C19.2994 16.8583 19.9914 15.1874 19.9914 13.4101V5.00978C19.9914 3.63414 18.8728 2.51466 17.4971 2.51466ZM8.62197 8.56452L9.34057 9.22573C9.71982 9.57505 10.3037 9.57505 10.6829 9.22573L11.3766 8.5878C11.933 8.08959 12.61 7.7669 13.3211 7.6147C13.3253 7.60803 13.3278 7.60472 13.332 7.59805C12.9884 6.11594 11.6328 5.00978 10.0126 5.00978C8.39242 5.00978 7.03756 6.11513 6.69324 7.59641C6.69741 7.60304 6.69905 7.60639 6.70322 7.6122C7.39437 7.7561 8.05975 8.06051 8.62279 8.56366L8.62197 8.56452Z" fill="#01383D"/>
</svg>
