<svg width="20" height="20" viewBox="0 0 20 20" fill="none" xmlns="http://www.w3.org/2000/svg">
<mask id="mask0_0_349" style="mask-type:luminance" maskUnits="userSpaceOnUse" x="0" y="0" width="20" height="20">
<path d="M19.9766 0.0195312H0.015625V19.9805H19.9766V0.0195312Z" fill="white"/>
</mask>
<g mask="url(#mask0_0_349)">
<path d="M9.99588 9.16832C11.1445 9.16832 12.0752 10.099 12.0752 11.2476C12.0752 12.3962 11.1445 13.3268 9.99588 13.3268C8.84731 13.3268 7.91663 12.3962 7.91663 11.2476C7.91663 10.099 8.84731 9.16832 9.99588 9.16832ZM18.4618 10.6113L17.3332 9.38871L12.1666 14.1586H7.82598L2.65939 9.38871L1.53076 10.6113L6.66988 15.3546V19.9805H8.33331V15.822H11.6601V19.9805H13.3236V15.3546L18.4618 10.6113ZM5.83737 2.66934C5.83737 1.21967 6.95682 0.0411377 8.33249 0.0411377C8.98286 0.0411377 9.56091 0.265699 9.99588 0.645789C10.4309 0.265699 11.0089 0.0411377 11.6593 0.0411377C13.035 0.0411377 14.1544 1.21967 14.1544 2.66934C14.1544 4.93908 10.8259 7.14977 10.4467 7.39429L9.99588 7.68536L9.54513 7.39429C9.16587 7.14977 5.83737 4.93908 5.83737 2.66934ZM7.50076 2.66934C7.50076 3.53432 8.83982 4.84591 9.99588 5.68595C11.152 4.84591 12.491 3.53432 12.491 2.66934C12.491 2.13704 12.1184 1.70456 11.6593 1.70456C11.2451 1.70456 10.8276 1.96156 10.8276 2.53626H9.16419C9.16419 1.96156 8.74668 1.70456 8.33249 1.70456C7.87339 1.70456 7.50076 2.13704 7.50076 2.66934Z" fill="#01383D"/>
</g>
</svg>
