<svg width="61" height="19" viewBox="0 0 61 19" fill="none" xmlns="http://www.w3.org/2000/svg">
<path d="M0.566162 18V5.86265H3.47816L3.72286 7.89365C4.11446 7.19225 4.66096 6.62935 5.36246 6.20525C6.06386 5.78105 6.89586 5.56895 7.85846 5.56895C8.86986 5.56895 9.72636 5.78925 10.4279 6.22965C11.1294 6.65385 11.6677 7.28195 12.0429 8.11395C12.4181 8.94595 12.6057 9.97365 12.6057 11.1972V18H9.32666V11.4908C9.32666 10.4794 9.11456 9.70455 8.69046 9.16615C8.28256 8.62785 7.63816 8.35865 6.75726 8.35865C6.20256 8.35865 5.70496 8.49735 5.26456 8.77465C4.82406 9.03565 4.48146 9.41905 4.23676 9.92475C3.99206 10.4141 3.86966 11.0177 3.86966 11.7355V18H0.566162ZM21.3981 18.2936C20.2236 18.2936 19.1632 18.0245 18.217 17.4861C17.2871 16.9478 16.5448 16.1973 15.9901 15.2348C15.4355 14.2723 15.1581 13.1711 15.1581 11.9313C15.1581 10.6751 15.4355 9.57405 15.9901 8.62785C16.5448 7.66535 17.2952 6.91485 18.2414 6.37655C19.1876 5.83815 20.2399 5.56895 21.3981 5.56895C22.589 5.56895 23.6494 5.83815 24.5793 6.37655C25.5255 6.91485 26.2759 7.66535 26.8306 8.62785C27.3853 9.57405 27.6626 10.6751 27.6626 11.9313C27.6626 13.1875 27.3853 14.2968 26.8306 15.2593C26.2759 16.2055 25.5255 16.9478 24.5793 17.4861C23.6331 18.0245 22.5727 18.2936 21.3981 18.2936ZM21.3981 15.4551C21.9365 15.4551 22.4178 15.3245 22.8419 15.0635C23.2661 14.7862 23.6087 14.3865 23.8697 13.8645C24.147 13.3424 24.2857 12.698 24.2857 11.9313C24.2857 11.1482 24.1552 10.4957 23.8941 9.97365C23.6331 9.45165 23.2824 9.06015 22.8419 8.79915C22.4178 8.53805 21.9447 8.40755 21.4226 8.40755C20.9006 8.40755 20.4193 8.53805 19.9788 8.79915C19.5547 9.06015 19.2039 9.45165 18.9266 9.97365C18.6656 10.4957 18.5351 11.1482 18.5351 11.9313C18.5351 12.698 18.6656 13.3424 18.9266 13.8645C19.2039 14.3865 19.5547 14.7862 19.9788 15.0635C20.4193 15.3245 20.8924 15.4551 21.3981 15.4551ZM35.4791 18.2936C34.4023 18.2936 33.448 18.1142 32.616 17.7553C31.784 17.3964 31.1151 16.907 30.6094 16.2871C30.12 15.6508 29.8345 14.933 29.7529 14.1336H33.0565C33.138 14.4273 33.2767 14.7046 33.4725 14.9656C33.6845 15.2104 33.9537 15.4061 34.28 15.5529C34.6063 15.6998 34.9896 15.7732 35.4301 15.7732C35.8706 15.7732 36.2295 15.7161 36.5068 15.6019C36.7842 15.4714 36.9881 15.3082 37.1186 15.1125C37.2491 14.9004 37.3143 14.6883 37.3143 14.4762C37.3143 14.15 37.2165 13.9053 37.0207 13.7421C36.8249 13.5627 36.5313 13.4158 36.1398 13.3016C35.7645 13.1875 35.3159 13.0651 34.7939 12.9346C34.2718 12.8041 33.7335 12.6573 33.1788 12.4941C32.6242 12.331 32.1184 12.1271 31.6616 11.8824C31.2212 11.6213 30.8623 11.2951 30.5849 10.9035C30.3076 10.512 30.1689 10.0144 30.1689 9.41085C30.1689 8.69305 30.3647 8.04865 30.7562 7.47765C31.1478 6.89045 31.7106 6.42545 32.4447 6.08285C33.1951 5.74025 34.0924 5.56895 35.1365 5.56895C36.5884 5.56895 37.7467 5.90345 38.6113 6.57225C39.4922 7.24115 40.0061 8.16285 40.1529 9.33745H37.0452C36.9636 8.94595 36.7515 8.64415 36.4089 8.43205C36.0827 8.21995 35.6503 8.11395 35.112 8.11395C34.541 8.11395 34.1005 8.21995 33.7906 8.43205C33.4969 8.62785 33.3501 8.88885 33.3501 9.21515C33.3501 9.42715 33.4562 9.62295 33.6682 9.80245C33.8966 9.96555 34.1984 10.1123 34.5736 10.2428C34.9489 10.357 35.3893 10.4712 35.8951 10.5854C36.776 10.7975 37.5672 11.0259 38.2687 11.2706C38.9865 11.499 39.5575 11.8416 39.9816 12.2984C40.4058 12.7551 40.6179 13.424 40.6179 14.3049C40.6342 15.0554 40.4303 15.7324 40.0061 16.336C39.582 16.9396 38.9865 17.4209 38.2198 17.7798C37.453 18.1224 36.5394 18.2936 35.4791 18.2936ZM43.4159 18V5.86265H46.7195V18H43.4159ZM45.0799 4.10075C44.4763 4.10075 43.9869 3.92946 43.6117 3.58687C43.2365 3.22797 43.0489 2.77934 43.0489 2.24099C43.0489 1.70264 43.2365 1.26217 43.6117 0.919576C43.9869 0.560676 44.4763 0.381226 45.0799 0.381226C45.6835 0.381226 46.173 0.560676 46.5482 0.919576C46.9397 1.26217 47.1355 1.70264 47.1355 2.24099C47.1355 2.77934 46.9397 3.22797 46.5482 3.58687C46.173 3.92946 45.6835 4.10075 45.0799 4.10075ZM55.0268 18.2936C53.9501 18.2936 52.9958 18.1142 52.1638 17.7553C51.3318 17.3964 50.6629 16.907 50.1572 16.2871C49.6678 15.6508 49.3823 14.933 49.3007 14.1336H52.6043C52.6858 14.4273 52.8245 14.7046 53.0203 14.9656C53.2323 15.2104 53.5015 15.4061 53.8278 15.5529C54.1541 15.6998 54.5374 15.7732 54.9779 15.7732C55.4184 15.7732 55.7773 15.7161 56.0546 15.6019C56.3319 15.4714 56.5359 15.3082 56.6664 15.1125C56.7969 14.9004 56.8621 14.6883 56.8621 14.4762C56.8621 14.15 56.7643 13.9053 56.5685 13.7421C56.3727 13.5627 56.0791 13.4158 55.6876 13.3016C55.3123 13.1875 54.8637 13.0651 54.3417 12.9346C53.8196 12.8041 53.2813 12.6573 52.7266 12.4941C52.1719 12.331 51.6662 12.1271 51.2094 11.8824C50.769 11.6213 50.4101 11.2951 50.1327 10.9035C49.8554 10.512 49.7167 10.0144 49.7167 9.41085C49.7167 8.69305 49.9125 8.04865 50.304 7.47765C50.6956 6.89045 51.2584 6.42545 51.9925 6.08285C52.7429 5.74025 53.6402 5.56895 54.6843 5.56895C56.1362 5.56895 57.2945 5.90345 58.1591 6.57225C59.04 7.24115 59.5539 8.16285 59.7007 9.33745H56.593C56.5114 8.94595 56.2993 8.64415 55.9567 8.43205C55.6305 8.21995 55.1981 8.11395 54.6598 8.11395C54.0888 8.11395 53.6483 8.21995 53.3384 8.43205C53.0447 8.62785 52.8979 8.88885 52.8979 9.21515C52.8979 9.42715 53.0039 9.62295 53.216 9.80245C53.4444 9.96555 53.7462 10.1123 54.1214 10.2428C54.4967 10.357 54.9371 10.4712 55.4428 10.5854C56.3238 10.7975 57.115 11.0259 57.8165 11.2706C58.5343 11.499 59.1053 11.8416 59.5294 12.2984C59.9536 12.7551 60.1657 13.424 60.1657 14.3049C60.182 15.0554 59.9781 15.7324 59.5539 16.336C59.1297 16.9396 58.5343 17.4209 57.7676 17.7798C57.0008 18.1224 56.0872 18.2936 55.0268 18.2936Z" fill="#01383D"/>
</svg>
