<svg width="261" height="275" viewBox="0 0 261 275" fill="none" xmlns="http://www.w3.org/2000/svg">
<path d="M217.155 76.4585V108.358C217.155 124.836 196.986 133.088 185.19 121.436L162.398 98.9245L120.902 57.9373C113.582 50.7068 101.71 50.7157 94.4011 57.957L76.5659 75.6264L58.677 93.2428C51.3457 100.462 51.3368 112.188 58.657 119.418L100.153 160.406L122.945 182.917C134.741 194.569 126.386 214.491 109.704 214.491H77.4083H18.7248C8.38339 214.491 0 222.771 0 232.986V257.943V282.873C0 293.063 8.34356 301.333 18.6594 301.368L80.3099 301.581L157.345 301.847C159.451 301.855 161.54 302.213 163.526 302.907L166.61 303.985C175.034 306.943 185.705 312.768 191.321 317.391C197.312 322.383 205.081 331.721 208.45 338.008C210.06 341.075 213.267 343 216.765 343H261.148H305.531C309.029 343 312.235 341.075 313.845 338.008C317.215 331.721 324.984 322.383 330.974 317.391C336.59 312.768 347.261 306.943 355.685 303.985L358.77 302.907C360.755 302.213 362.845 301.855 364.951 301.848L442.079 301.581L503.636 301.368C513.952 301.333 522.295 293.063 522.295 282.873V257.943V232.986C522.295 222.771 513.912 214.491 503.571 214.491H444.887H412.591C395.909 214.491 387.555 194.569 399.351 182.917L422.142 160.406L463.638 119.418C470.959 112.188 470.95 100.462 463.618 93.2428L445.73 75.6264L427.894 57.957C420.585 50.7157 408.714 50.7068 401.393 57.9373L359.897 98.9245L337.106 121.436C325.31 133.088 305.14 124.836 305.14 108.358V76.4585V18.4951C305.14 8.28055 296.757 0 286.415 0H261.148H235.88C225.538 0 217.155 8.28055 217.155 18.4951V76.4585Z" fill="#D4B39C" fill-opacity="0.18"/>
</svg>
