<svg width="20" height="20" viewBox="0 0 20 20" fill="none" xmlns="http://www.w3.org/2000/svg">
<path d="M14.1556 2.08331C14.1556 0.932478 15.0881 -2.12733e-05 16.2389 -2.12733e-05C17.3898 -2.12733e-05 18.3223 0.932478 18.3223 2.08331C18.3223 3.23415 17.3898 4.16664 16.2389 4.16664C15.0881 4.16664 14.1556 3.23415 14.1556 2.08331ZM16.6664 4.99996H14.0664C13.8339 4.99996 13.6089 4.90164 13.4523 4.72996L9.36394 0.269979C9.05312 -0.0683547 8.52644 -0.0925212 8.18644 0.218312C7.8473 0.529146 7.82394 1.05665 8.1348 1.39581L12.2223 5.85582C12.6948 6.37082 13.3664 6.66664 14.0656 6.66664H16.6656C17.5848 6.66664 18.3323 7.41414 18.3323 8.33332V10.8333C18.3323 11.7525 17.5848 12.5 16.6656 12.5H14.9989V9.16664C14.9989 8.70582 14.6264 8.33332 14.1656 8.33332C13.7048 8.33332 13.3323 8.70582 13.3323 9.16664V19.1666C13.3323 19.6275 13.7048 20 14.1656 20C14.6264 20 14.9989 19.6275 14.9989 19.1666V14.1666H16.6656V19.1666C16.6656 19.6275 17.0381 20 17.4989 20C17.9598 20 18.3323 19.6275 18.3323 19.1666V13.7033C19.3239 13.125 19.9989 12.0616 19.9989 10.8333V8.33332C19.9989 6.49496 18.5048 4.99996 16.6664 4.99996ZM4.4373 12.1241C3.82728 11.5158 2.83644 11.515 2.24644 12.1066L0.261446 13.9766C-0.0735537 14.2925 -0.0893869 14.82 0.226446 15.1541C0.541444 15.49 1.06894 15.5058 1.40394 15.1891L2.49894 14.1575V19.1666C2.49894 19.6275 2.87144 20 3.33228 20C3.79311 20 4.16562 19.6275 4.16562 19.1666V14.1575L5.26062 15.1891C5.42144 15.3416 5.62644 15.4158 5.8323 15.4158C6.05394 15.4158 6.2748 15.3283 6.43894 15.1541C6.7548 14.82 6.73894 14.2925 6.40394 13.9766L4.4373 12.1241ZM10.2706 7.95746C9.66144 7.34746 8.6698 7.34832 8.0798 7.93996L6.0948 9.80996C5.7598 10.1258 5.74394 10.6533 6.0598 10.9875C6.3748 11.3225 6.90312 11.3391 7.2373 11.0225L8.3323 9.99082V19.1666C8.3323 19.6275 8.7048 20 9.16562 20C9.62644 20 9.99894 19.6275 9.99894 19.1666V9.99082L11.0939 11.0225C11.2548 11.175 11.4598 11.2491 11.6656 11.2491C11.8873 11.2491 12.1081 11.1616 12.2723 10.9875C12.5881 10.6533 12.5723 10.1258 12.2373 9.80996L10.2706 7.95746Z" fill="#01383D"/>
</svg>
