<svg width="20" height="20" viewBox="0 0 20 20" fill="none" xmlns="http://www.w3.org/2000/svg">
<mask id="mask0_0_433" style="mask-type:luminance" maskUnits="userSpaceOnUse" x="0" y="0" width="20" height="20">
<path d="M19.9688 0.0195312H0.0078125V19.9805H19.9688V0.0195312Z" fill="white"/>
</mask>
<g mask="url(#mask0_0_433)">
<path d="M4.99806 7.50491C2.15279 7.50491 0.0078125 8.75665 0.0078125 10.4159V17.0696C0.0078125 18.7288 2.15279 19.9805 4.99806 19.9805C7.84333 19.9805 9.98832 18.7288 9.98832 17.0696V10.4159C9.98832 8.75665 7.84333 7.50491 4.99806 7.50491ZM8.32489 13.7427C8.32489 14.1827 7.06153 14.9903 4.99806 14.9903C2.9346 14.9903 1.67123 14.1827 1.67123 13.7427V12.6216C2.5412 13.0649 3.69644 13.3269 4.99806 13.3269C6.2997 13.3269 7.45494 13.0649 8.32489 12.6216V13.7427ZM4.99806 9.16834C7.06153 9.16834 8.32489 9.97591 8.32489 10.4159C8.32489 10.8559 7.06153 11.6635 4.99806 11.6635C2.9346 11.6635 1.67123 10.8559 1.67123 10.4159C1.67123 9.97591 2.9346 9.16834 4.99806 9.16834ZM4.99806 18.3171C2.9346 18.3171 1.67123 17.5096 1.67123 17.0696V15.9484C2.5412 16.3917 3.69644 16.6537 4.99806 16.6537C6.2997 16.6537 7.45494 16.3917 8.32489 15.9484V17.0696C8.32489 17.5096 7.06153 18.3171 4.99806 18.3171ZM19.9688 4.17809V15.822C19.9688 18.115 18.1033 19.9805 15.8103 19.9805H11.6517C11.1918 19.9805 10.82 19.608 10.82 19.1488C10.82 18.6897 11.1918 18.3171 11.6517 18.3171H15.8103C17.1859 18.3171 18.3054 17.1977 18.3054 15.822V4.17809C18.3054 2.80243 17.1859 1.68295 15.8103 1.68295H7.49319C6.11756 1.68295 4.99806 2.80243 4.99806 4.17809V5.00978C4.99806 5.46889 4.62629 5.84148 4.16637 5.84148C3.70642 5.84148 3.33465 5.46889 3.33465 5.00978V4.17809C3.33465 1.88506 5.20017 0.0195312 7.49319 0.0195312H15.8103C18.1033 0.0195312 19.9688 1.88506 19.9688 4.17809ZM10.82 8.33661C10.3601 8.33661 9.98832 7.96401 9.98832 7.50491C9.98832 7.04581 10.3601 6.67322 10.82 6.67322H14.9786V5.00978H8.32489V5.42565C8.32489 5.88476 7.95311 6.25735 7.49319 6.25735C7.03327 6.25735 6.66149 5.88476 6.66149 5.42565V5.00978C6.66149 4.0924 7.40754 3.34637 8.32489 3.34637H14.9786C15.896 3.34637 16.642 4.0924 16.642 5.00978V6.67322C16.642 7.59056 15.896 8.33661 14.9786 8.33661H10.82ZM11.6517 14.9903C11.6517 14.5312 12.0235 14.1586 12.4834 14.1586H15.8103C16.2702 14.1586 16.642 14.5312 16.642 14.9903C16.642 15.4494 16.2702 15.822 15.8103 15.822H12.4834C12.0235 15.822 11.6517 15.4494 11.6517 14.9903ZM11.6517 11.6635V10.8317C11.6517 10.3726 12.0235 10 12.4834 10C12.9434 10 13.3151 10.3726 13.3151 10.8317V11.6635C13.3151 12.1226 12.9434 12.4952 12.4834 12.4952C12.0235 12.4952 11.6517 12.1226 11.6517 11.6635ZM16.642 11.6635C16.642 12.1226 16.2702 12.4952 15.8103 12.4952C15.3503 12.4952 14.9786 12.1226 14.9786 11.6635V10.8317C14.9786 10.3726 15.3503 10 15.8103 10C16.2702 10 16.642 10.3726 16.642 10.8317V11.6635Z" fill="#01383D"/>
</g>
</svg>
