<svg width="20" height="20" viewBox="0 0 20 20" fill="none" xmlns="http://www.w3.org/2000/svg">
<path d="M7.93247 2.0988C7.93247 0.950214 8.86315 0.0195312 10.0118 0.0195312C11.1603 0.0195312 12.091 0.950214 12.091 2.0988C12.091 3.24739 11.1603 4.17809 10.0118 4.17809C8.86315 4.17809 7.93247 3.24739 7.93247 2.0988ZM19.9923 17.4854V17.9013C19.9923 19.0482 19.0599 19.9805 17.913 19.9805H2.11052C0.964427 19.9805 0.03125 19.0482 0.03125 17.9013V16.6537C0.03125 15.278 1.15073 14.1586 2.52638 14.1586H5.02151C5.35001 14.1586 5.6619 14.226 5.9497 14.3416C6.16428 13.5514 6.75227 12.921 7.51664 12.6482V6.54511L3.57183 2.23936C3.2641 1.89753 3.29238 1.37189 3.63338 1.06499C3.97438 0.758089 4.50085 0.785535 4.80775 1.12654L8.3026 5.00978H11.7201L15.2149 1.12654C15.5226 0.785535 16.0483 0.757258 16.3893 1.06499C16.7303 1.37189 16.7577 1.89753 16.4508 2.23936L12.506 6.54511V12.649C13.4716 12.9934 14.1695 13.9082 14.1695 14.9911V15.1442C14.4306 15.051 14.7084 14.9911 15.0012 14.9911H17.4963C18.872 14.9911 19.9914 16.1106 19.9914 17.4862L19.9923 17.4854ZM10.8435 12.4952V10.8317H9.18003V12.4952H10.8435ZM10.8435 6.67322H9.18003V9.16834H10.8435V6.67322ZM2.11052 18.3171H5.85321V16.6537C5.85321 16.1946 5.47976 15.822 5.02151 15.822H2.52638C2.0681 15.822 1.69467 16.1946 1.69467 16.6537V17.9013C1.69467 18.13 1.88097 18.3171 2.11052 18.3171ZM7.51664 18.3171H12.5069V14.9903C12.5069 14.5312 12.1343 14.1586 11.6752 14.1586H8.34833C7.89005 14.1586 7.51664 14.5312 7.51664 14.9903V18.3171ZM18.3288 17.4854C18.3288 17.0263 17.9562 16.6537 17.4971 16.6537H15.002C14.5429 16.6537 14.1703 17.0263 14.1703 17.4854V18.3171H17.913C18.1417 18.3171 18.3288 18.13 18.3288 17.9013V17.4854Z" fill="#01383D"/>
</svg>
